<svg xmlns="http://www.w3.org/2000/svg" viewBox="0 0 690 690"><path d="M345 0C154.77 0 0 154.77 0 345s154.77 345 345 345 345-154.77 345-345S535.23 0 345 0" style="fill:#141946"/><circle cx="345" cy="345" r="320.14" style="fill:#fff"/><path d="m508.44 496.69 54 39.28c95.76-108.88 95.76-273.06 0-381.94l-54 39.28q-5.66-6.09-11.75-11.75l39.28-54c-108.88-95.76-273.06-95.76-381.94 0l39.28 54q-6.09 5.66-11.75 11.75l-54-39.28c-95.76 108.88-95.76 273.06 0 381.94l54-39.28q5.66 6.09 11.75 11.75l-39.28 54c108.88 95.76 273.06 95.76 381.94 0l-39.28-54q6.09-5.66 11.75-11.75M345 549.16c-112.57 0-204.16-91.59-204.16-204.16S232.43 140.84 345 140.84 549.16 232.43 549.16 345 457.57 549.16 345 549.16" style="fill:#7ccdef"/><path d="m387.52 377.56-49.14-14.57 36.71 37-36.71 37 49.14-14.53L400 474.05l12.45-51.59 49.18 14.53-36.74-37 36.74-37-49.18 14.57L400 325.95z" style="fill:red" transform="translate(-55 -55)"/><path d="M487.21 260.23H312.79l-52.56 52.56v61.56L234.58 400l25.65 25.65v61.56l52.56 52.56h174.42l52.56-52.56V437.2h-53.04v33.98l-15.55 15.55H328.82l-15.55-15.55V328.82l15.55-15.55h142.36l15.55 15.55v33.98h53.04v-50.01z" style="fill:red" transform="translate(-55 -55)"/></svg>