<svg xmlns="http://www.w3.org/2000/svg" viewBox="0 0 252 203.8"><path d="m161.08 146.643 2.683-2.022 6.71 8.905-2.683 2.022zM143.68 35.73h-3v-5.52h.85a4.08 4.08 0 0 0 4.08-4.08 4.08 4.08 0 0 0-4.04-4.13h-4.25v23.46h6.36a4.86 4.86 0 0 0 0-9.71m-27.47 4.19a5.69 5.69 0 1 0-11.29 0 5.69 5.69 0 1 0 11.29 0M86.1 33.52a5.63 5.63 0 0 0-5.08 3.59h10.22a5.66 5.66 0 0 0-5.1-3.65m61.095 120.613 3.115-1.258 9.609 23.782-3.115 1.259zM101.34 100.59c1.18 0 3.09 2.41 3.18 4.07.11.87-.12 1.55.54 1.55s.82-1.33.82-2.51a6.66 6.66 0 0 0-1.93-4c-1.15-1.34-1.25-2.7-2.63-2.7-.8 0-.8 1.31-1.95 3.17a2.47 2.47 0 0 0-.4 2.29c.28.19 1.28-1.9 2.35-1.9m-2.47 16.03c2.06 0 2.57-.34 2.57-2.07 0-.87-.36-.88-.74-.88-1.44 0-2.83 2.07-2.83 2.58 0 .15.17.37 1 .37M84.85 89c1.22-4.13-.65-8.12-2.1-8.12a.79.79 0 0 0-.79.79c0 1.43 1.56 1.33 2.56 7.38z" style="fill:#fff"/><path d="M251.09 126c-.09-3.66-2.12-5.57-3.79-5.26a2.81 2.81 0 0 0-1.44-2.54l-1.68-1.2a3.32 3.32 0 0 0-2.37-1c-2 0-3 2.6-3 2.6-1.55-1.07-1.82-1.78-2.52-3.88a4.44 4.44 0 0 0-4.9-3.39c-1.18 0-1.55-.15-4.08-1.69a18.15 18.15 0 0 0 1.76-8.55 15.8 15.8 0 0 0 4.05.56 11.18 11.18 0 0 0 11.61-10.74v-.24c0-6.08-4.07-8.72-8.58-12.37 4.27.29 9.8-2.88 9.8-8.63a8.1 8.1 0 0 0-2.09-4.93 17.1 17.1 0 0 1-7.62 4.05c-2.3.39-8.44 1.45-8.44 7.27 0 6.82 10.07 8.75 10.07 14.57a4.19 4.19 0 0 1-4.25 4.13h-.06c-6.29 0-9.94-6.65-17.41-8.89V0H35.81v85.87c-7.45 2.27-11.07 8.89-17.4 8.89a4.19 4.19 0 0 1-4.31-4.06v-.07c0-5.81 10.07-7.73 10.07-14.57 0-5.81-6.19-6.88-8.44-7.27a17.1 17.1 0 0 1-7.62-4.05 8.1 8.1 0 0 0-2.09 4.93c0 5.75 5.52 8.92 9.8 8.63-4.52 3.65-8.58 6.29-8.58 12.37a11.18 11.18 0 0 0 11.37 11h.24a15.8 15.8 0 0 0 4.05-.56 18.15 18.15 0 0 0 1.84 8.55c-2.54 1.55-2.91 1.55-4.1 1.69a4.42 4.42 0 0 0-4.89 3.39c-.77 2.1-1 2.8-2.61 3.88 0 0-.94-2.6-3-2.6a3.32 3.32 0 0 0-2.37 1l-1.64 1.21a2.81 2.81 0 0 0-1.55 2.54c-1.55-.31-3.63 1.59-3.73 5.26a3.7 3.7 0 0 0-.91 2.13c0 1.67 1.95 2.34 5.88 2.94l.14-.51 4.48.7c4.05 0 4.5-3.19 6-4.64l2.38.46c6.19-1.07 6-4.45 9.17-4.45 1.47 0 4.33.68 5.85.68a6.9 6.9 0 0 0 2-.29v21.14c0 23 41.27 59.61 90.19 59.61s90.17-36.62 90.17-59.61v-21.13a7.1 7.1 0 0 0 2 .29c1.55 0 4.38-.68 5.85-.68 3.09 0 3 3.39 9.17 4.45l2.38-.46c1.45 1.44 1.9 4.64 6 4.64l4.48-.7.14.51c3.91-.6 5.88-1.27 5.88-2.94a3.7 3.7 0 0 0-.91-2.13M4.64 129.18s-3-.56-3-1 .82-1 .91-2c.17-1.9 0-2.77 1.73-3.79a3.7 3.7 0 0 1 1.82 1.55c0 .65-.71 2.26-1.45 5.23M37.52 1.67h177v83.78a16.5 16.5 0 0 0-2.69-.29V4.37H40.21v80.79a16 16 0 0 0-2.69.29zm95.86 119.16c-.63.8-.68 3.31 2.23 3.31 5.29 0 7-2.24 9.54-4.25a8.32 8.32 0 0 0 5.06 2.46l2.8-.19c3.09 0 5.47 2 8.64 2h.31a46.47 46.47 0 0 1-71.91 0h.31c3.09 0 5.58-2 8.63-2l2.78.22a8.32 8.32 0 0 0 5.06-2.46c2.54 2 4.25 4.25 9.54 4.25 2.91 0 2.86-2.51 2.23-3.31 2.49.45 4.27-1.38 2.86-3.73-4.42-1.3-4.39-5.35-8.24-8.71-4-9.6-2.54-15.84-5.72-20.1-6-8-7.19-9.59-10.82-12.62a70 70 0 0 0-9.16-7.15 46.53 46.53 0 0 1 21.36-17.12 11.64 11.64 0 0 1 1.64-23.12 7.56 7.56 0 0 1 5.64 2.24V14.76h6.19v30.3a24.43 24.43 0 1 0 20.17 6.18 46.6 46.6 0 0 1 22 17.38 70 70 0 0 0-9.12 7.16c-3.65 3.09-4.86 4.64-10.82 12.62-3.19 4.24-1.7 10.47-5.72 20.1-3.85 3.36-3.82 7.41-8.24 8.71-1.41 2.35.37 4.18 2.86 3.73m-91.96-.57c2.71-1.55 4.52-6.32 4.52-7.73l.58.13v31.41c0 16.1 36.77 48.88 79.44 48.88s79.46-32.78 79.46-48.88v-31.44l.56-.14c0 1.33 1.81 6 4.52 7.73v23.85c0 20.32-39.49 54-84.51 54s-84.57-33.68-84.57-54zm62.63 41.4 2.66.91c-.68 3.65-1 7.31-2.21 12.56l7.81-22.45 3.23 1.1-11.54 30.23-3-1 2.83-16.56-8.09 14.75-3-1 9.51-30.93 3.22 1.11-7.55 22.47c2.29-4.87 4.27-8 6-11.26M97.25 150l-5.51-3.85-6.39 9.12 4.17 2.89-2 2.75-4-2.86-6.4 9.14 5.49 3.81-1.93 2.74-5.49-3.85a3.36 3.36 0 0 1-.84-4.64l14.72-21a3.36 3.36 0 0 1 4.64-.82l5.49 3.85zm-38.4 5-2.23-2.47 24-21.65 2.12 2.35L70.01 150l15.15-14.12 2.24 2.49-24 21.63-2.18-2.3L74.01 141zm27.13-41.07a21 21 0 0 1-2.07-3.93 10.6 10.6 0 0 0 3.61-.91 10.6 10.6 0 0 0 1.9-.12 10 10 0 0 0-.39 1.27 13.1 13.1 0 0 0-3.09 3.7m-18.9 2.31c1.18 0 3.09-.26 3.37-.26s.94 0 1.1 1.28.91 1.86.91 2.35-1.55 1.44-3.09 1.44c-1.31 0-1.45-3-2.75-3.7-1-.53-.74-1.11.43-1.11M134.86 154l3.34-.42 1.55 13.05a5.12 5.12 0 0 1-2.74 5.13l1.75 14.34-3.32.42-1.76-14.35a5.18 5.18 0 0 1-3.77-4.31l-1.55-13.05 3.32-.4 1.78 14.44 3.32-.42zm45.53-15.37-6.19-5.21a6.2 6.2 0 0 1-1.55-2.42l2.09-2.69a4.36 4.36 0 0 0 1.1 2.06l5.44 4.55a5.89 5.89 0 0 1 1.55 8.12c3.56-4.25 7.62-.45 7.62-.45l6.19 5.15a5.8 5.8 0 0 0 3 1.39l-2.21 2.63a4.2 4.2 0 0 1-2.44-1.08l-7.47-6.16c-2.13-1.79-4.27.77-4.27.77l11.46 9.62-2.13 2.55-24.74-20.78 2.13-2.55 10.69 8.94a3 3 0 0 0-.22-4.53m-7.73 12.2a2.58 2.58 0 0 1 .37 3c.84-.23 1.79-.09 3 1.55l6.37 8.68a4.64 4.64 0 0 0 2.09 1.42l-2.74 2.07a5.46 5.46 0 0 1-2-1.55l-7.28-9.73-2.69 2 8.69 11.61-2.68 2L156.39 146l5.35-4a3.36 3.36 0 0 1 4.64.66zm-10.05 23.2a5.008 5.008 0 0 1-9.28 3.77l-8.57-21.19a5.008 5.008 0 0 1 9.28-3.77zm22.25-57.68c1.18 0 1.41.59.43 1.11-1.3.73-1.45 3.7-2.75 3.7-1.55 0-3.09-1-3.09-1.44s.76-1.16.91-2.35.84-1.28 1.11-1.28 2.2.26 3.37.26m-22-6a10 10 0 0 0-.37-1.26 10.6 10.6 0 0 0 1.9.12 10.6 10.6 0 0 0 3.63.93 21 21 0 0 1-2.07 3.91 13.1 13.1 0 0 0-3.09-3.7M86.1 46.39a5.57 5.57 0 0 0 4.87-3.09l4.64 3.09a11.29 11.29 0 0 1-9.53 5.29 11.63 11.63 0 1 1 11.34-11.92v1.18h-16.9a5.91 5.91 0 0 0 5.57 5.41m-18.64-9.61L76.61 51h-8.17l-7.26-11.29v-8.17h2.12a4.75 4.75 0 0 0 4.75-4.75A4.75 4.75 0 0 0 63.29 22h-4.26v29h-7V16.5h12.92a10.3 10.3 0 0 1 10.06 10.56 10.3 10.3 0 0 1-7.49 9.68m88 3.86A10.27 10.27 0 0 1 145.36 51h-3.1a24.3 24.3 0 0 0-11.91-5.8V16.53h12.83a9.48 9.48 0 0 1 9.34 9.58 8.1 8.1 0 0 1-2.55 6.09 8.85 8.85 0 0 1 5.44 8.38M145.05 57a22.59 22.59 0 1 1-41.09 17.22l3.56 3.67 4.42 7.11a24.1 24.1 0 0 0 9.28 1.82l2.92-4.11 9.77-.26.23.68a24.6 24.6 0 0 0 9-10 31 31 0 0 1-4.13 1.35s-2.63-4.48-4.58-8.65a59 59 0 0 1 4.36-7.47 42.5 42.5 0 0 1 6.57 3.84 7 7 0 0 1 .17.8v-.62a24.6 24.6 0 0 0-.59-5.38m-26.18 1.1a73 73 0 0 1 5.76 7.83c-1.35 2.64-5.26 8.88-5.26 8.88-5.29-1.27-8.89-2.55-8.89-2.55a55.7 55.7 0 0 1-.09-10.19c2.29-1.19 8.49-4 8.49-4m0-10.36a22.8 22.8 0 0 1 7.16-1.14 22.5 22.5 0 0 1 8.37 1.55l-1.25 3.09a55.7 55.7 0 0 0-9.94-.14zm-11.76 11.56-2.85 4.13a22.64 22.64 0 0 1 6.56-10.83zm60.31-13.55a4.38 4.38 0 0 0 4.33-4.42V29.49h6.19v11.38a10.453 10.453 0 0 1-20.89.8V29.49h6.19V41.3a4.38 4.38 0 0 0 4.33 4.42m14.54-30.93h6.19V51h-6.19zm11.92 0h6.19V51h-6.2V14.79zM46.52 10.73V82a12.46 12.46 0 0 1-5 3V5.66h169V85a12.46 12.46 0 0 1-5.08-3V10.82zm-39.57 109c2.18-1.27 2.18-2 3.2-2 .68 0 1.25 1.22 1.25 1.22-1 1.72-2 3.46-3.36 3.46a1.64 1.64 0 0 1-1.7-1.08 1.37 1.37 0 0 1 .6-1.55m26.86 2c-1.73 0-3.56-.66-5.85-.66-3.33-.12-3.43 1.74-5.43 2.88s-2.72 1.55-3.65 1.55-1.55-.46-2.38-.46c-2.44 0-2.2 4.64-6 4.64a38 38 0 0 1-3.82-.6 9 9 0 0 1 1.65-4.81c2.3 0 3.65-2.94 3.65-2.94 4.64-2.55 4.35-3.4 5.27-6s2.07-2.16 4.92-2.49c2.92-1.31 4.64-2.29 4.14-3.65a17.15 17.15 0 0 1-1.73-6.79c0-2.58 0-3.32-.63-3.32a28 28 0 0 1-5.1.82 9.46 9.46 0 0 1-9.93-9v-.31c0-8 9.08-10.08 9.08-12.9 0-1-1.16-1.18-2.52-1.18a7.22 7.22 0 0 1-7.72-6.69v-.24a4.9 4.9 0 0 1 .77-2.43 16.45 16.45 0 0 0 7 3.23c4 .68 7.07 1.95 7.07 5.63 0 5.83-10.07 7.73-10.07 14.57a5.85 5.85 0 0 0 5.87 5.82h.11c8.46 0 11.38-9.4 22.67-9.66 5.86-.68 7.73-7.16 14.1-7.05a4.13 4.13 0 0 0 4.1-1.39c2-1.92 2.4-3.31 8.58-5 6.57-1.8 7.48-5.35 13.36-5.35 4.64 0 10.72 6 14.27 9s4.82 4.47 10.55 12.37c2.57 3.62 1.67 10.93 5.64 20.1 3.94 3.31 3.53 7 8.43 9 .37.8-.8.79-1.35.79-5.47 0-6-6.54-9.66-8.2-.9-.42-.8 0-.4.59 4 5.13 1.22 6.43 7.58 9.6 1.82.9.56 1.28 0 1.28-6.51 0-7.84-4.64-9.88-4.48-1.27 1.18-3.09 2.69-4.64 2.69-.48 0-2-.22-2.78-.22-3.65 0-5.54 2-8.63 2-2.29-.11-2.29-1.89-2.29-1.89a11 11 0 0 1-.32-1.81c0-1.33 1.55-2.43 1.55-2.85 0-1.31-1.93.63-1.93-.74s1.16-2.18 3.09-4.14a9.3 9.3 0 0 1 1.9-3.94c0-1-2.3.36-5.13.22-3.87 1.69-5.29.74-4.64-.29a10.82 10.82 0 0 0 1.85-6.57c0-1.95-.79-1.93-1-.9-1.42 6-2.4 7.47-5.68 7.92-1.07.14-2.43.57-1.55 2.13l4 7.16c.43.77-1.31 4.73-.73 4.73s3.54-3.22 2.44-5.46l-3.37-6.7c.84-1 2.32-.31 3.23.09a24.3 24.3 0 0 0 2.29 4.79 3.88 3.88 0 0 1 1 2.83c0 1.28-1.25 3.09-2.26 4.64s-2.26 1.72-4.75 1.7c-3.82 1.88-8.85 3.76-10.42 3.76-4 0-3.74-4.73-5.85-4.73-.48 0-1.7.17-2-.17a43 43 0 0 1-2.63-4.64c0-1 1.55-1.3 4.79-1.3s4.13 6.43 6.87 6.43 6-1.72 6-3.46c0-3.63-4.21-5.29-6.88-7.39-3-2.37-2.12-4.89-3.09-4.89-1.38 0-.17 2.81-.17 3.49s-.68 1-1.93 1c-5 0-5.92-1.07-9.08-1.07-2.75 0-3.87.76-5.92.76-5.77 0-3.53-7.64-3.53-9.49a.66.66 0 0 0-.73-.53c-.66 0-1 3.09-1.7 7.73-.54 2.38-3.46 7.84-12 8.07-6.8.2-10.19 2.41-12.06 5.57-.29.42.11 1.24.76.42a14.29 14.29 0 0 1 11.47-4.48c6.88.2 10.53-2.16 13.22-7.08a2.1 2.1 0 0 1 1.26.89c0 1.44-.9 2-1.42 3.28-.39 1-1.41 3.09-2.44 3.31-2.41.66-3.84 2.77-6.68 2.77m180.54 22.49c0 22.21-41.38 57.94-88.5 57.94s-88.5-35.73-88.5-57.94v-21.8c1-.53 1.81-1.13 2.69-1.55v23.35c0 20.81 40.11 55.3 85.81 55.3s85.86-34.48 85.86-55.3v-23.35c.88.42 1.72 1 2.69 1.55zm27-14.57c-3.76 0-3.51-4.64-6-4.64-.76 0-1.55.46-2.38.46s-1.52-.43-3.62-1.54-2.14-2.89-5.53-2.89c-2.27 0-4.11.66-5.85.66-2.85 0-4.27-2.1-6.7-2.77-1-.28-2-2.35-2.44-3.31-.51-1.24-1.41-1.84-1.41-3.28a2.1 2.1 0 0 1 1.21-.87c2.69 4.92 6.34 7.28 13.22 7.08a14.23 14.23 0 0 1 11.5 4.49c.66.79 1.1 0 .82-.42-1.87-3.09-5.26-5.37-12.06-5.57-8.58-.23-11.51-5.69-12-8.07-.73-4.64-1-7.73-1.7-7.73a.66.66 0 0 0-.73.53c0 1.86 2.24 9.49-3.53 9.49-2.06 0-3.17-.76-5.92-.76-3.09 0-4.07 1.07-9.08 1.07-1.25 0-1.93-.36-1.93-1s1.13-3.54-.25-3.54c-1 0-.19 2.52-3.09 4.89-2.68 2.1-6.88 3.76-6.88 7.39 0 1.75 3.09 3.46 6 3.46s3.71-6.43 6.87-6.43 4.79.34 4.79 1.3a43 43 0 0 1-2.63 4.64c-.31.34-1.55.17-2 .17-2.13 0-1.87 4.73-5.88 4.73-1.55 0-6.59-1.89-10.45-3.74-2.49 0-3.76-.08-4.75-1.7s-2.26-3.4-2.26-4.64a3.94 3.94 0 0 1 1-2.83 23.5 23.5 0 0 0 2.3-4.79c.91-.4 2.4-1.05 3.23-.09l-3.37 6.7c-1.1 2.24 1.82 5.46 2.44 5.46s-1.16-4-.74-4.73l4-7.16c.87-1.55-.49-2-1.55-2.13-3.28-.45-4.25-1.89-5.68-7.92-.17-1-1-1.05-1 .9a10.73 10.73 0 0 0 1.86 6.62c.7 1-.73 2-4.64.29-2.83.14-5.13-1.21-5.13-.22a9.3 9.3 0 0 1 1.94 3.93c2 2 3.09 2.86 3.09 4.14s-1.93-.57-1.93.74c0 .42 1.55 1.55 1.55 2.85a11 11 0 0 1-.32 1.81s0 1.78-2.21 1.78c-3.09 0-5-2-8.64-2-.76 0-2.29.22-2.77.22-1.55 0-3.45-1.55-4.72-2.69-2.06 0-3.37 4.48-9.88 4.48-.56 0-1.82-.39 0-1.28 6.36-3.17 3.59-4.47 7.58-9.6.4-.63.49-1-.4-.59-3.65 1.65-4.19 8.2-9.66 8.2-.54 0-1.72 0-1.35-.79 4.9-2 4.48-5.74 8.43-9 4-9.12 3.09-16.44 5.64-20.1 5.72-7.84 7-9.37 10.55-12.37s9.63-8.8 14.24-8.8c5.86 0 6.82 3.51 13.44 5.3 6.19 1.69 6.59 3.09 8.58 5a4.13 4.13 0 0 0 4.1 1.39c6.42-.11 8.24 6.37 14.1 7.05 11.29.26 14.21 9.66 22.67 9.66a5.85 5.85 0 0 0 6-5.7v-.11c-.09-6.93-10.09-8.8-10.09-14.63 0-3.68 3.09-4.95 7.07-5.63a16.45 16.45 0 0 0 7-3.22 4.9 4.9 0 0 1 .76 2.46 7.22 7.22 0 0 1-7.49 6.94h-.34c-1.36 0-2.52.22-2.52 1.18 0 2.81 9.08 4.93 9.08 12.9a9.46 9.46 0 0 1-9.56 9.31h-.31a28 28 0 0 1-5.1-.82c-.66 0-.63.74-.63 3.32a17.15 17.15 0 0 1-1.73 6.79c-.53 1.36 1.22 2.34 4.14 3.65 2.85.28 3.91-.4 4.92 2.37s.68 3.42 5.27 6c0 0 1.35 2.88 3.65 2.94a9 9 0 0 1 1.62 4.75 38 38 0 0 1-3.82.6m4.11-8.34a1.64 1.64 0 0 1-1.7 1.08c-1.35 0-2.35-1.78-3.36-3.46 0 0 .57-1.22 1.25-1.22 1 0 1 .74 3.2 2a1.41 1.41 0 0 1 .6 1.55m1.7 7.9c-.76-3-1.45-4.64-1.45-5.23a3.7 3.7 0 0 1 1.82-1.55c1.75 1 1.55 1.89 1.73 3.79.09 1 .91 1.35.91 2s-3 1-3 1" style="fill:#fff"/><path d="M151.33 113.64c-.39 0-.74 0-.74.88 0 1.73.51 2.07 2.57 2.07.82 0 1-.22 1-.37 0-.51-1.39-2.58-2.83-2.58m17.92-32.74c-1.45 0-3.32 4-2.1 8.12h.37c.94-6.06 2.55-6 2.55-7.31a.79.79 0 0 0-.74-.83m-16.24 21.61a2.47 2.47 0 0 0-.39-2.23c-1.14-1.86-1.14-3.17-1.95-3.17-1.36 0-1.55 1.33-2.68 2.66a6.66 6.66 0 0 0-1.93 4c0 1.18.34 2.51.82 2.51s.43-.74.54-1.55c.22-1.65 2-4.07 3.23-4.07s2 2 2.35 1.84" style="fill:#fff"/><path fill="#c3c5c8" d="M145.04 57a24.6 24.6 0 0 1 .59 5.38V63a39 39 0 0 1 .09 8.88 23 23 0 0 1-2.55 1.21 24.6 24.6 0 0 1-9 10l1.65 4.64a35.8 35.8 0 0 1-8.13 3.34 20.2 20.2 0 0 1-7.4-3.07l.9-1.25a24.1 24.1 0 0 1-9.28-1.82l.49.8-.88.71A22.59 22.59 0 0 0 145.04 57"/><path d="M164.46 109.09a10.6 10.6 0 0 1-1.94-.09 10 10 0 0 1 .39 1.27 13.1 13.1 0 0 1 3.09 3.7 21 21 0 0 0 2.11-3.97 10.6 10.6 0 0 1-3.63-.93m-80.57.93a21 21 0 0 0 2.07 3.91 12.9 12.9 0 0 1 3.09-3.7 10 10 0 0 1 .39-1.21 12 12 0 0 1-1.9.12 10.6 10.6 0 0 1-3.64.88" style="fill:#ffc52f"/><path d="m153 122.16-2.77.22a8.32 8.32 0 0 1-5.06-2.46c-2.54 2-4.25 4.25-9.54 4.25-2.91 0-2.86-2.51-2.23-3.31-2.49.45-4.27-1.38-2.86-3.73 4.42-1.3 4.39-5.37 8.24-8.71 4-9.62 2.54-15.84 5.72-20.1 6-8 7.19-9.59 10.82-12.63a71 71 0 0 1 9.12-7.14 46.7 46.7 0 0 0-22-17.4 24.42 24.42 0 1 1-34.49 1.6q.6-.66 1.25-1.27h-.32a46.6 46.6 0 0 0-21.36 17.07 71 71 0 0 1 9.12 7.22c3.66 3.09 4.88 4.64 10.88 12.63 3.19 4.24 1.7 10.45 5.72 20.1 3.85 3.34 3.82 7.41 8.24 8.71 1.41 2.35-.37 4.18-2.86 3.73.63.8.68 3.31-2.23 3.31-5.29 0-7-2.24-9.54-4.25a8.32 8.32 0 0 1-5.06 2.46l-2.78-.29c-3.09 0-5.47 2-8.64 2h-.35a46.47 46.47 0 0 0 71.91 0h-.31c-3.09 0-5.58-2-8.64-2" style="fill:#ffc52f"/><path d="M59.03 22h4.27a4.75 4.75 0 0 1 4.74 4.8 4.75 4.75 0 0 1-4.75 4.75h-2.11v8.11L68.46 51h8.15l-9.16-14.22a10.27 10.27 0 0 0 7.48-9.94 10.16 10.16 0 0 0-10-10.31H52.02V51h7V22zm86.33 29a10.27 10.27 0 0 0 10.16-10.35 8.85 8.85 0 0 0-5.51-8.43 8.12 8.12 0 0 0 2.51-6.09 9.49 9.49 0 0 0-9.39-9.6h-12.78v28.62A24.3 24.3 0 0 1 142.27 51zm-8-29h4.16a4.08 4.08 0 0 1 4.08 4.08 4.08 4.08 0 0 1-4.08 4.13h-.8v5.52h3a4.86 4.86 0 0 1 0 9.71h-6.4V22zm56.48-7.23h6.14v36.22h-6.14zm-11.92 0h6.14v36.22h-6.14zm-14.54 36.8a10.58 10.58 0 0 0 10.45-10.7V29.49h-6.19V41.3a4.33 4.33 0 1 1-8.64 0V29.49h-6.18v11.38a10.58 10.58 0 0 0 10.45 10.7" style="fill:#cb1f41"/><path d="M86.1 51.57a11.29 11.29 0 0 0 9.53-5.29l-4.64-3.09a5.55 5.55 0 0 1-4.87 3.09 5.91 5.91 0 0 1-5.6-5.41h16.9v-1a11.37 11.37 0 1 0-11.36 11.64m0-18a5.66 5.66 0 0 1 5.18 3.65H81.02a5.63 5.63 0 0 1 5.09-3.65m30.1-2.96a7.6 7.6 0 0 0-5.69-2.24 11.64 11.64 0 0 0-1.69 23.2h.32a24.23 24.23 0 0 1 13.2-6.42V14.76h-6.19zm-5.69 15.84a6.06 6.06 0 0 1-5.6-6.39 5.69 5.69 0 1 1 11.29 0 6 6 0 0 1-5.69 6.39m-41.15 74.67c1.55 0 3.09-1 3.09-1.44s-.76-1.16-.91-2.35-.8-1.27-1.1-1.27-2.2.25-3.37.25-1.41.6-.43 1.13c1.3.73 1.44 3.7 2.75 3.7m-61.31 1.28c1.35 0 2.35-1.78 3.36-3.46 0 0-.57-1.22-1.25-1.22-1 0-1 .73-3.2 2a1.4 1.4 0 0 0-.6 1.55 1.67 1.67 0 0 0 1.7 1.1m-3.79.05c-1.76 1-1.55 1.89-1.73 3.79-.09 1-.91 1.35-.91 2s3 1 3 1c.74-3 1.45-4.64 1.45-5.23a3.7 3.7 0 0 0-1.82-1.55" style="fill:#cb1f41"/><path d="M111.77 109.36c-4-9.12-3.09-16.44-5.64-20.1-5.72-7.84-7-9.37-10.55-12.37S85.9 68 81.31 68c-5.88 0-6.82 3.51-13.44 5.3-6.19 1.69-6.6 3.09-8.58 5a4.13 4.13 0 0 1-4.1 1.39c-6.42-.11-8.24 6.37-14.1 7.05C29.8 87 26.86 96.4 18.42 96.4a5.85 5.85 0 0 1-6-5.64v-.17c0-6.87 10.07-8.74 10.07-14.57 0-3.68-3.09-4.95-7.07-5.63a16.45 16.45 0 0 1-7-3.22 4.9 4.9 0 0 0-.66 2.46 7.22 7.22 0 0 0 7.49 6.94h.24c1.36 0 2.52.22 2.52 1.18 0 2.81-9.08 4.93-9.08 12.9a9.46 9.46 0 0 0 9.59 9.35h.31a28 28 0 0 0 5.1-.82c.65 0 .63.74.63 3.32a17.15 17.15 0 0 0 1.7 6.82c.53 1.36-1.22 2.34-4.14 3.65-2.85.28-3.91-.4-4.92 2.37s-.68 3.42-5.27 6c0 0-1.35 2.88-3.65 2.94A9 9 0 0 0 6.65 129a38 38 0 0 0 3.82.6c3.76 0 3.51-4.64 6-4.64.76 0 1.55.46 2.38.46s1.55-.42 3.65-1.55 2.09-2.87 5.47-2.87c2.27 0 4.11.66 5.85.66 2.85 0 4.27-2.1 6.68-2.77 1-.28 2.06-2.35 2.46-3.31.51-1.24 1.41-1.84 1.41-3.28a2.1 2.1 0 0 0-1.21-.87c-2.69 4.9-6.34 7.27-13.22 7.07a14.29 14.29 0 0 0-11.42 4.5c-.65.79-1.08 0-.8-.42 1.87-3.09 5.26-5.37 12.06-5.57 8.58-.23 11.51-5.69 12-8.07.73-4.64 1-7.73 1.7-7.73a.66.66 0 0 1 .73.53c0 1.86-2.24 9.49 3.53 9.49 2.06 0 3.17-.76 5.92-.76 3.09 0 4.07 1.07 9.08 1.07 1.25 0 1.93-.36 1.93-1s-1.15-3.54.25-3.54c1 0 .19 2.52 3.09 4.89 2.68 2.1 6.88 3.76 6.88 7.39 0 1.75-3.09 3.46-6 3.46s-3.71-6.43-6.87-6.43-4.79.34-4.79 1.3a43 43 0 0 0 2.63 4.64c.31.34 1.55.17 2 .17 2.13 0 1.86 4.73 5.88 4.73 1.55 0 6.59-1.89 10.45-3.74 2.49 0 3.76-.08 4.75-1.7s2.26-3.4 2.26-4.64a3.88 3.88 0 0 0-1-2.83 24.3 24.3 0 0 1-2.23-4.78c-.91-.4-2.4-1.05-3.23-.09l3.37 6.7c1.1 2.24-1.82 5.46-2.44 5.46s1.16-4 .74-4.73l-4-7.16c-.87-1.55.49-2 1.55-2.13 3.28-.45 4.25-1.89 5.68-7.92.17-1 .94-1.05.94.9a10.82 10.82 0 0 1-1.84 6.62c-.7 1 .73 2 4.64.29 2.81.14 5.13-1.21 5.13-.22a9.3 9.3 0 0 0-1.9 3.94c-2 2-3.09 2.86-3.09 4.14s1.93-.57 1.93.74c0 .42-1.55 1.55-1.55 2.85a11 11 0 0 0 .23 1.81s0 1.78 2.21 1.78c3.09 0 5-2 8.63-2 .77 0 2.3.22 2.78.22 1.55 0 3.45-1.55 4.64-2.69 2.06 0 3.37 4.48 9.88 4.48.56 0 1.82-.39 0-1.28-6.36-3.17-3.59-4.47-7.58-9.6-.4-.63-.49-1 .4-.59 3.65 1.65 4.19 8.2 9.66 8.2.54 0 1.72 0 1.35-.79-4.9-2-4.48-5.74-8.43-9M84.85 89h-.33c-1-6-2.55-5.92-2.55-7.28a.79.79 0 0 1 .74-.83c1.45 0 3.32 4 2.1 8.12m14 27.57c-.84 0-1-.22-1-.37 0-.51 1.39-2.58 2.83-2.58.39 0 .74 0 .74.88 0 1.73-.51 2.07-2.57 2.07m6.19-10.33c-.66 0-.43-.74-.56-1.55-.2-1.65-2-4.07-3.22-4.07s-2 2-2.29 1.84a2.47 2.47 0 0 1 .39-2.23c1.2-1.83 1.2-3.15 1.98-3.15 1.36 0 1.55 1.33 2.68 2.66a6.66 6.66 0 0 1 1.95 4c0 1.18-.36 2.51-.82 2.51m76.47 9.74c-.29 0-.94 0-1.1 1.28s-.96 1.83-.96 2.33 1.52 1.39 3.14 1.39c1.3 0 1.45-3 2.75-3.7 1-.53.74-1.13-.43-1.13s-3.09-.17-3.37-.17m63.4 3.69c-2.18-1.28-2.18-2-3.2-2-.68 0-1.25 1.22-1.25 1.22 1 1.69 2 3.46 3.36 3.46a1.63 1.63 0 0 0 1.7-1.1 1.37 1.37 0 0 0-.6-1.55m4.4 6.45c-.17-1.9 0-2.77-1.73-3.79a3.7 3.7 0 0 0-1.82 1.55c0 .65.71 2.26 1.45 5.23 0 0 3-.56 3-1s-.82-1-.91-2" style="fill:#cb1f41"/><path d="M240.02 121.26c-4.64-2.55-4.35-3.4-5.27-6s-2.07-2.09-4.92-2.37c-2.92-1.31-4.64-2.29-4.14-3.65a17.15 17.15 0 0 0 1.73-6.79c0-2.58 0-3.32.63-3.32a28 28 0 0 0 5.1.82 9.46 9.46 0 0 0 9.93-9v-.31c0-8-9.08-10.08-9.08-12.9 0-1 1.16-1.18 2.52-1.18a7.22 7.22 0 0 0 7.72-6.69v-.24a4.9 4.9 0 0 0-.76-2.46 16.45 16.45 0 0 1-6.91 3.19c-4 .68-7.07 1.95-7.07 5.63 0 5.83 10.07 7.73 10.07 14.57a5.85 5.85 0 0 1-5.87 5.82h-.11c-8.46 0-11.38-9.4-22.67-9.66-5.86-.68-7.73-7.16-14.1-7.05a4.13 4.13 0 0 1-4.1-1.39c-2-1.92-2.4-3.31-8.58-5-6.62-1.73-7.56-5.28-13.42-5.28-4.64 0-10.72 6-14.27 9s-4.82 4.47-10.55 12.37c-2.57 3.62-1.67 10.93-5.64 20.1-3.94 3.31-3.53 7-8.43 9-.37.8.8.79 1.35.79 5.47 0 6-6.54 9.66-8.2.9-.42.8 0 .4.59-4 5.13-1.22 6.43-7.58 9.6-1.82.9-.56 1.28 0 1.28 6.51 0 7.82-4.64 9.88-4.48 1.27 1.18 3.09 2.69 4.72 2.69.48 0 2-.22 2.77-.22 3.66 0 5.55 2 8.64 2 2.26 0 2.21-1.78 2.21-1.78a11 11 0 0 0 .32-1.81c0-1.33-1.55-2.43-1.55-2.85 0-1.31 1.93.63 1.93-.74s-1.16-2.18-3.09-4.14a9.3 9.3 0 0 0-1.9-3.94c0-1 2.3.36 5.13.22 3.87 1.69 5.29.74 4.64-.29a10.73 10.73 0 0 1-1.84-6.57c0-1.95.79-1.93 1-.9 1.42 6 2.4 7.47 5.68 7.92 1.07.14 2.43.57 1.55 2.13l-4.05 7.05c-.42.77 1.33 4.73.74 4.73s-3.54-3.22-2.44-5.46l3.37-6.7c-.84-1-2.32-.31-3.23.09a23.5 23.5 0 0 1-2.3 4.79 4 4 0 0 0-1 2.83c0 1.28 1.27 3.09 2.27 4.64s2.26 1.72 4.75 1.7c3.87 1.86 8.89 3.74 10.45 3.74 4 0 3.74-4.73 5.88-4.73.46 0 1.69.17 2-.17a43 43 0 0 0 2.63-4.64c0-1-1.55-1.3-4.79-1.3s-4.13 6.43-6.87 6.43-6-1.72-6-3.46c0-3.63 4.21-5.29 6.88-7.39 3-2.37 2.12-4.89 3.09-4.89 1.38 0 .17 2.81.17 3.49s.68 1 1.93 1c5 0 5.92-1.07 9.08-1.07 2.75 0 3.87.76 5.92.76 5.77 0 3.53-7.64 3.53-9.49a.66.66 0 0 1 .73-.53c.66 0 1 3.09 1.7 7.73.54 2.38 3.46 7.84 12 8.07 6.8.2 10.19 2.41 12.06 5.57.28.36-.15 1.21-.82.42a14.23 14.23 0 0 0-11.46-4.48c-6.88.2-10.53-2.16-13.22-7.08a2.1 2.1 0 0 0-1.21.87c0 1.44.9 2 1.41 3.28.4 1 1.42 3.09 2.44 3.31 2.43.66 3.85 2.77 6.7 2.77 1.73 0 3.57-.66 5.85-.66 3.39 0 3.46 1.81 5.52 2.92s2.72 1.55 3.65 1.55 1.62-.46 2.38-.46c2.44 0 2.2 4.64 6 4.64a38 38 0 0 0 3.82-.6 9 9 0 0 0-1.65-4.81c-2.3 0-3.65-2.94-3.65-2.94m-92.58-16.63c-.11.87.12 1.55-.54 1.55s-.82-1.33-.82-2.51a6.66 6.66 0 0 1 1.93-4c1.19-1.33 1.3-2.66 2.68-2.66.8 0 .8 1.31 1.95 3.17a2.47 2.47 0 0 1 .46 2.29c-.28.19-1.28-1.9-2.35-1.9s-3.09 2.4-3.22 4.06m5.58 11.94c-2.06 0-2.57-.34-2.57-2.07 0-.87.36-.88.74-.88 1.44 0 2.83 2.07 2.83 2.58 0 .15-.19.37-1 .37m14.34-27.54h-.34c-1.22-4.13.65-8.12 2.1-8.12a.79.79 0 0 1 .79.79c0 1.36-1.55 1.25-2.55 7.31" style="fill:#cb1f41"/><path d="M37.52 85.45a16.3 16.3 0 0 1 2.71-.29V4.36h171.63v80.8a16.5 16.5 0 0 1 2.69.29V1.67H37.52zm174.34 58.73c0 20.81-40.21 55.3-85.86 55.3S40.21 165 40.21 144.18v-23.35c-.88.42-1.72 1-2.69 1.55v21.8c0 22.21 41.38 57.94 88.5 57.94s88.5-35.73 88.5-57.94v-21.8c-1-.53-1.81-1.13-2.69-1.55z" style="fill:#182752"/><path d="M210.52 85V5.66h-169V85a12.46 12.46 0 0 0 5-3V10.82h158.92V82a12.46 12.46 0 0 0 5.08 3m-169 59.18c0 20.32 39.49 54 84.51 54s84.49-33.68 84.49-54v-23.92c-2.72-1.55-4.53-6.34-4.53-7.73l-.56.14v31.52c0 16.1-36.77 48.88-79.44 48.88s-79.47-32.79-79.47-48.89v-31.44l-.51-.14c0 1.31-1.81 6-4.52 7.73v23.85z" style="fill:#182752"/><path d="m63.36 160.04 24.04-21.65-2.24-2.49L70 150.01l12.79-16.74-2.13-2.35-24.03 21.65 2.23 2.47 15.15-14.12-12.79 16.77zM97.25 150l1.92-2.75-5.49-3.85a3.36 3.36 0 0 0-4.64.82l-14.81 21a3.36 3.36 0 0 0 .84 4.64l5.45 3.89 1.95-2.75-5.49-3.85 6.54-9.1 4.13 2.89 1.87-2.75-4.11-2.89 6.39-9.12zm6.85 34.12 11.57-30.25-3.22-1.1-7.93 22.35c1.18-5.24 1.55-8.91 2.21-12.56l-2.66-.93c-1.7 3.31-3.68 6.4-6 11.27l7.55-22.47-3.22-1.11-9.51 30.93 3 1 8-14.75-2.81 16.56zm35.69-17.53-1.55-13.05-3.34.42 1.78 14.43-3.32.42-1.78-14.44-3.32.4 1.55 13.05a5.18 5.18 0 0 0 3.9 4.31l1.76 14.35 3.32-.42-1.73-14.41a5.09 5.09 0 0 0 2.74-5.12m13.42 11.3a5.008 5.008 0 0 0 9.28-3.77l-8.55-21.19a5.008 5.008 0 0 0-9.28 3.77zm-2.86-25 9.6 23.78-3.09 1.27-9.62-23.78zm29.41 13.03a5.46 5.46 0 0 0 2 1.55l2.74-2.07a4.64 4.64 0 0 1-2.06-1.42l-6.49-8.61c-1.19-1.55-2.15-1.73-3-1.55a2.58 2.58 0 0 0-.37-3l-6.19-8.18a3.36 3.36 0 0 0-4.64-.66l-5.35 4 19.47 25.84 2.68-2-8.74-11.58 2.69-2zm-12-10.33-6.71-8.89 2.69-2 6.71 8.91zm19.75-10.96 7.38 6.19a4.27 4.27 0 0 0 2.44 1.08l2.21-2.63a5.8 5.8 0 0 1-3-1.39l-6.19-5.15s-4.07-3.8-7.62.45a5.89 5.89 0 0 0-1.5-8.12l-5.44-4.55a4.36 4.36 0 0 1-1.05-2.1l-2.23 2.65a6 6 0 0 0 1.55 2.34l6.19 5.21a3 3 0 0 1 .22 4.53l-10.69-8.94-2.13 2.55 24.74 20.78 2.13-2.55-11.29-9.56s2.13-2.57 4.27-.77m-51.77-56.84-1.65-4.64-.23-.66-9.76.26-2.94 4.11-.9 1.25a20.4 20.4 0 0 0 7.35 3.09 35.8 35.8 0 0 0 8.13-3.34m9.95-15.95a38.8 38.8 0 0 0-.09-8.88 7 7 0 0 0-.17-.8 42.5 42.5 0 0 0-6.73-3.91 59 59 0 0 0-4.36 7.47c2 4.14 4.64 8.68 4.64 8.68a31 31 0 0 0 4.13-1.35 23 23 0 0 0 2.55-1.21m-21.05-5.94a70 70 0 0 0-5.75-7.84s-6.19 2.78-8.49 4a55.7 55.7 0 0 0 .09 10.19s3.6 1.28 8.88 2.55c0 0 3.93-6.19 5.27-8.88m-20.45-2.55 2.92-4.11 3.63-6.71a22.64 22.64 0 0 0-6.55 10.82m28.95-12.06 1.25-3.09a22.8 22.8 0 0 0-15.46-.45l4.31 3.46a55.7 55.7 0 0 1 9.94.14m-21.63 35.1.93-.73-.51-.77-4.42-7.11-3.54-3.66a22.58 22.58 0 0 0 7.54 12.36m106.52 40.12h1.38v4.16h.51v-4.16h1.45v-.49h-3.34zm7.19-.49-1.19 3.8-1.2-3.8h-.79v4.67h.49v-3.96l1.25 3.96h.5l1.25-3.96v3.96h.5v-4.67z" style="fill:#182752"/></svg>