<svg xmlns="http://www.w3.org/2000/svg" xml:space="preserve" version="1.0" viewBox="127.8 27.8 238.4 310.2"><path d="M349 69.2c-1.2-.1-2.4-.3-3.8-.4-20.6-2.8-31.8-11.3-43.6-20.2-12.9-9.7-27.5-20.8-54.7-20.8s-41.8 11-54.7 20.8c-11.8 8.9-23 17.4-43.6 20.2-1.4.2-2.6.3-3.8.4-4.7.5-17 1.8-17 14.8v127.6c0 32.4 10.2 59.7 30.3 81.1 19.8 21 49 36.1 86.7 44.8l2.2.5 2.2-.5c37.7-8.7 66.9-23.8 86.7-44.8 20.1-21.4 30.3-48.7 30.3-81.1V84c-.2-13-12.6-14.3-17.2-14.8" style="fill:#fff"/><path d="M246.8 40.2c-23.1 0-34.8 8.9-47.2 18.2C187 68 174 77.9 150.1 81.1c-1.5.2-2.9.4-4.2.5-5.8.6-5.8 1-5.8 2.4v127.6c0 29.2 9.1 53.6 26.9 72.6 18 19.1 44.8 32.9 79.8 41 35-8.1 61.8-21.9 79.8-41 17.9-19 26.9-43.4 26.9-72.6V84c0-1.4 0-1.8-5.8-2.4-1.3-.1-2.7-.3-4.2-.5-23.9-3.2-36.9-13.1-49.5-22.6-12.4-9.4-24.1-18.3-47.2-18.3" style="fill:#dd004a"/><path d="M283.3 50.8v262.7c-11.8 5-24 9-36.5 11.8-35-8.1-61.8-22-79.8-41-17.9-19-26.9-43.4-26.9-72.6V84.1c0-1.4 0-1.8 5.8-2.4 1.3-.1 2.7-.3 4.2-.5C174 77.9 187 68 199.6 58.5c12.4-9.4 24.1-18.2 47.2-18.2 16.5 0 27.2 4.5 36.5 10.5" style="fill:#001837"/><path d="M275.1 86.7c-8.2-6-16.9-9.1-25.8-9.1h-.6c-17.9 0-35 12.5-48.2 35.2-8.7 14.9-33.2 62.1-56.8 107.7-.9 1.8-1.8 3.6-2.8 5.3q1.5 14.1 6.6 27.3c27.9-52.9 62.3-117.8 71.3-133.8 9.9-17.7 19.8-26.2 30.3-26 10.4-.2 20.3 8.3 30.2 26 1.3 2.3 3 5.5 5.2 9.5V95.1c-3-3.1-6.1-5.9-9.4-8.4m-115 74.7 8.3-14.9c-9.6 2-19 4.6-28.3 7.7v13.6c6.5-2.3 13.1-4.4 19.9-6.1zm-7 14.1c-4.4 1.4-8.7 2.9-12.9 4.6V194c1.2-.5 2.3-1 3.5-1.4z" style="fill:#dd004a"/><path d="M215 156.7c2.1-.1 4.2-.1 6.3-.1 21.3-.1 42.5 2.7 63 8.2v-13.3c-20.4-5.2-41.5-7.8-62.5-7.8zm35.2 17.6c-9.2-1.2-18.4-1.8-27.7-1.8H220c-4.5 0-9.1.1-13.6.4l-7 13.3-.3.5-43.5 83q4.2 6.6 9.3 12.3l50.6-96.3c1.5 0 3-.1 4.5-.1 4 0 7.9.1 11.8.3h.4l-.4.7-56.5 105.5c3.6 3.1 7.4 5.9 11.3 8.5L247 188l.4-.8c12.5 1.5 24.8 4.1 36.8 7.7v-13.8c-10-2.8-20.1-5-30.3-6.4-1.1-.1-2.4-.2-3.7-.4" style="fill:#dd004a"/><path d="M348.3 75.9c-1.1-.1-2.5-.3-4-.5-22.3-3.1-34.7-12.5-46.8-21.5-12.6-9.5-25.7-19.4-50.7-19.4s-38.1 9.9-50.7 19.4c-12 9.1-24.4 18.4-46.7 21.5-1.5.2-2.9.4-4 .5-4.9.5-11 1.2-11 8.2v127.6c0 30.7 9.6 56.4 28.5 76.5s46.9 34.5 83.3 42.9l.6.1.7-.2c36.4-8.4 64.5-22.8 83.3-42.9 18.9-20.1 28.5-45.9 28.5-76.5V84.1c0-7-6.1-7.7-11-8.2m5.1 8.2v127.6c0 29.1-9.1 53.5-26.9 72.5-17.9 19.1-44.8 32.9-79.7 41-34.9-8.1-61.8-21.9-79.7-41-17.9-19-26.9-43.4-26.9-72.5V84.1c0-1.3 0-1.7 5.8-2.4 1.4-.2 2.7-.3 4.2-.5 23.9-3.3 36.9-13.1 49.5-22.7 12.4-9.4 24.1-18.2 47.2-18.2 23 0 34.8 8.9 47.2 18.2 12.6 9.5 25.6 19.4 49.5 22.7 1.4.2 2.7.3 4.2.5 5.6.7 5.6 1.1 5.6 2.4" style="fill:#001837"/><path d="M291.7 122.4c0-16 3.6-22.1 15.8-22.1h1.9c12.2 0 15.8 6.1 15.8 22.1v4.7c0 14.8-3.1 20.9-12.9 22v-14.2c3.1-.9 3.7-2.7 3.7-9.9v-.4c0-8.8-1.9-10-7-10h-1.1c-5.1 0-7 1.2-7 10v.4c0 7.2.6 9 3.7 9.9V149c-9.8-1-12.9-7.2-12.9-22zm.5 30.6h32.6v14h-32.6zm0 31.2h22.7v-14h9.9v42h-9.9v-14h-22.7zm0 48h14.1l18.5-18.4v17.1l-9.6 9v.5l9.6 9v15.3l-18.5-18.4h-14.1zm44.7-101.8c-1.3 0-1.9 1.1-1.9 5.1 0 3.4.4 4.4 1.3 4.4 1 0 1.2-.7 1.4-4.7.2-5.4 1.1-7.6 3.9-7.6 2.7 0 3.6 2.8 3.6 7.4 0 4.7-1.2 7.5-4.2 7.5v-3.2c1.4 0 1.7-1.4 1.7-4.7 0-3.1-.3-3.9-1.2-3.9-1 0-1.1.7-1.3 4.4-.3 4.9-.5 7.9-3.7 7.9-3.3 0-4-3.1-4-7.7 0-5.1.9-8.1 4.5-8.1zm5.5 28.7v-6h-9.7v-3.2h9.7v-6h2.7v15.3h-2.7zm-7.1 22.7h-2.7V169H345v3.2h-9.7zm3.6 1.3c4.1 0 6.4 2.3 6.4 7.8 0 5.4-2.3 7.8-6.4 7.8s-6.4-2.4-6.4-7.8c0-5.5 2.2-7.8 6.4-7.8m0 12.4c2.5 0 3.7-1.3 3.7-4.6s-1.2-4.6-3.7-4.6c-2.6 0-3.7 1.3-3.7 4.6s1.1 4.6 3.7 4.6m-6.4 12.7c0-5.5 2.1-7.8 6.4-7.8h6.2v3.2h-6.2c-1.7 0-3.7.5-3.7 4.6s2 4.6 3.7 4.6h6.2v3.2h-6.2c-4.3 0-6.4-2.4-6.4-7.8m.1 12.7v-3.2H345v3.2zm4.3 4.8c-1.3 0-1.9 1.1-1.9 5.1 0 3.4.4 4.4 1.3 4.4 1 0 1.2-.7 1.4-4.7.2-5.4 1.1-7.6 3.9-7.6 2.7 0 3.6 2.8 3.6 7.4 0 4.7-1.2 7.5-4.2 7.5v-3.2c1.4 0 1.7-1.4 1.7-4.7 0-3.1-.3-3.9-1.2-3.9-1 0-1.1.7-1.3 4.4-.3 4.9-.5 7.9-3.7 7.9-3.3 0-4-3.1-4-7.7 0-5.1.9-8.1 4.5-8.1zm-105.7 66.6c0 1.5 1.2 2.2 5.8 2.2 3.8 0 4.9-.4 4.9-1.5 0-1.2-.8-1.4-5.3-1.6-6.1-.3-8.5-1.2-8.5-4.4 0-3.1 3.1-4.1 8.4-4.1s8.5 1.3 8.5 4.8h-3.6c0-1.5-1.5-1.9-5.3-1.9-3.5 0-4.4.3-4.4 1.4s.8 1.3 4.9 1.5c5.5.3 8.9.6 8.9 4.1 0 3.7-3.5 4.5-8.7 4.5-5.7 0-9.2-1-9.2-5zm25.5-9.3c5.6 0 8.4 2.1 8.7 6.2h-3.7c-.3-2.3-2.1-3.1-5.1-3.1-3.7 0-5.2 1.3-5.2 4.2s1.6 4.2 5.2 4.2c3 0 4.7-.9 5.1-3.2h3.7c-.4 4.1-3.2 6.2-8.7 6.2-6.2 0-8.8-2.6-8.8-7.2 0-4.8 2.6-7.3 8.8-7.3" style="fill:#fff"/></svg>