<svg xmlns="http://www.w3.org/2000/svg" viewBox="0 0 252 235.42"><path d="M234.83 134.84V127s-4.81-1-12.8-2.52l3.26-11.92a189 189 0 0 0-23.31-5.4V48.47s-15-2.66-36.63-4.51l3.92-12.58-13.85-10.07-3-9-4.77 3.45 1.85-5.7h-9.62L125.96 0l-13.91 10.06h-9.55l1.85 5.7-4.81-3.48-3 9-13.87 10.1 3.92 12.58c-21.68 1.85-36.63 4.51-36.63 4.51v58.61a189 189 0 0 0-23.21 5.41l3.33 11.92c-8.07 1.48-12.88 2.52-12.88 2.52v7.84L0 153.12l17.17 12.14v9.77s13.54-2.59 33-5.25c3.33 45.66 75.86 65.65 75.86 65.65s72.53-20 75.79-65.65c19.46 2.66 33 5.25 33 5.25v-9.77l17.17-12.14zM85.75 102.43c-6.14.52-11.77 1.11-17 1.78l8.36-10.81c2.89-.3 5.77-.52 8.66-.81v9.84zM73.09 90.22l-7 9.92V72.75a478 478 0 0 1 59.95-4 478 478 0 0 1 59.95 4v27.38l-7-9.92c-10.73-1.26-25.09-2.52-40.93-3v13.62c-3.92-.07-7.92-.15-12.06-.15s-8.14.07-12.06.15V87.18c-15.84.52-30.2 1.85-40.85 3m93.18 2.37c2.89.3 5.77.52 8.66.81l8.36 10.81c-5.25-.74-10.88-1.33-17-1.78v-9.84zm-35.3-28 10.44-7.62a503 503 0 0 1 56.76 5.4v44c-2.44-.44-5.11-.89-7.84-1.26v-36a498 498 0 0 0-59.36-4.59m-77.19-13s15.62-2.66 37.82-4.37l-4.51-14.43 12.58-9.18 1.78-5.33 10 7.18-3.77-11.59h5.62l12.73-9.18 12.66 9.18h5.62l-3.77 11.7 10-7.18 1.7 5.33 12.66 9.18-4.51 14.43c22.2 1.7 37.89 4.37 37.89 4.37v7.25a478 478 0 0 0-58.1-5.55l-14.06 10.29-14.07-10.29a509 509 0 0 0-58.17 5.55zm0 10.81a503 503 0 0 1 56.76-5.4l10.44 7.62a483 483 0 0 0-59.36 4.59v36c-2.81.37-5.4.81-7.84 1.26v-44zm72.16 42c58.32 0 94.73 10.58 94.73 10.58l-4.66 16.87 4.66 20.65s-36.34-10.58-94.73-10.58-94.66 10.58-94.66 10.58l4.59-20.65-4.59-16.87c0 .07 36.34-10.58 94.66-10.58m76 47.88c7.84 1.48 13.84 2.89 17.84 3.92l-17.84 7.1v-11zm-52.69 12.14h10.07v2.52h-10.04c-2.29 0-4.29-1.48-4.29-3.4v-4c0-1.92 1.92-3.4 4.29-3.4h10.07v3.18l-1.11-.67h-9a1 1 0 0 0-1.18.88v4a1.1 1.1 0 0 0 1.18.89m13.54 26.72v9.84a115 115 0 0 1-13.25 8.07l-7.92-6.59a126.3 126.3 0 0 0 21.17-11.32m-16.73 19.69a193 193 0 0 1-20.13 8.44 159.5 159.5 0 0 1-20.06-8.44l8.07-6.66V145.8c3.92-.07 7.92-.15 12.06-.15s8.14 0 12.06.15v58.32zm-80-53.73v-7.4c6-.89 12.51-1.63 19.69-2.29v35c0 .07-18-12.51-19.69-25.31m19.7 31.81v9.7c-10.21-7.84-18.58-17.76-19.54-29.53 2.81 4.51 8.66 12 19.54 19.83m19-28.5v2.44h-8.29V166l1 .89h-5l1-.89v-9l-1-.89h14.8v3.18l-1-.67h-9.7v1.7h8.19zm-15.57 30.86a124 124 0 0 0 21.24 11.32l-7.92 6.59A115 115 0 0 1 89.25 201zm77.12-2.37c10.81-7.84 16.73-15.32 19.54-19.83-1 11.77-9.33 21.68-19.54 29.53zm0-6.29v-35c7.18.59 13.69 1.41 19.69 2.29v7.4c-1.78 12.73-19.69 25.31-19.69 25.31M50.1 163.34l-17.91-7.1c4-1 10-2.44 17.84-3.92zm-29.16 7.18v-7.1L5.62 152.53l15.25-16.21v-6.36s3.7-.81 10.07-2l1.11 4-5.77 25.9 21.17 8.44c-15.91 2.22-26.5 4.22-26.5 4.22m177.25-4c0 44.33-72.16 65.05-72.16 65.05s-72.16-20.72-72.16-65.05v-14.86c2.44-.44 5-.89 7.84-1.33v16.21c0 34 52.92 53.06 64.31 56.76 11.4-3.7 64.39-22.79 64.39-56.76v-16.16c2.74.37 5.4.81 7.84 1.33zm32.86-3.11v7.1s-10.66-2-26.5-4.14l21.19-8.36-5.85-25.9 1.11-4c6.29 1.18 10.07 2 10.07 2v6.36l15.22 16.19z" style="fill:#fff"/><path d="m104.35 29.16-8.8 6.36L99.1 46.7l10.65-.52 3.41-10.66zm27.09 1.04 3.4-10.37-8.88-6.36-8.8 6.36 3.33 10.37zm21.46 16.5 3.56-11.18-8.81-6.36-8.88 6.36 3.48 10.66zm-18.06 1.63-3.4-10.36h-10.95l-3.33 10.36 8.8 6.44zm-15.24 83.48h10.51a4.77 4.77 0 0 0 4.74-4.74v-9.55a4.77 4.77 0 0 0-4.74-4.74H119.6a4.83 4.83 0 0 0-4.81 4.74v9.55a4.88 4.88 0 0 0 4.81 4.74m-.85-14.36a1 1 0 0 1 1-1h10.14a1 1 0 0 1 1 .95v9.64a1 1 0 0 1-1 1h-10.14a1 1 0 0 1-1-1v-9.7zm74 19.21 10.51 1.78a3.91 3.91 0 0 0 4.65-3v-.05a4.2 4.2 0 0 0 .07-1v-9.4a5.84 5.84 0 0 0-4.81-5.55l-10.51-1.78a3.89 3.89 0 0 0-4.66 2.89 2.5 2.5 0 0 0-.07 1v9.4a5.92 5.92 0 0 0 4.82 5.71m-.81-14.43a.74.74 0 0 1 .66-.81h.3l10.21 1.7a1.18 1.18 0 0 1 1 1.18v9.62a.88.88 0 0 1-.74.89h-.22l-10.21-1.78a1.27 1.27 0 0 1-1-1.18v-9.59zM69.86 135.21l10.51-1.26a5.47 5.47 0 0 0 4.74-5.25v-9.47a4.2 4.2 0 0 0-4.14-4.22 1.5 1.5 0 0 0-.59.07l-10.51 1.18a5.48 5.48 0 0 0-4.81 5.25v9.47a4.22 4.22 0 0 0 4.14 4.29 2 2 0 0 0 .67-.07m-.81-14.14a1.13 1.13 0 0 1 1-1.18l10.17-1.22a.89.89 0 0 1 1 .74v9.7a1.12 1.12 0 0 1-1 1.11l-10.21 1.18a.89.89 0 0 1-1-.74v-9.62zm-19.25 2.09v13.62l-1.56 1.85 7.03-1.33-1.55-1.26v-13.62l6.51-1.04 1.48 1.26v-5.33l-19.98 3.56v5.25l1.56-1.78zm122.85-4.14v13.54l-1.55 1.41 7.03.74-1.55-1.71v-13.54l6.51.67 1.55 1.77v-5.33l-20.05-2.14v5.25l1.55-1.4zm-34.49 12.95 7.11.22-1.63-1.7v-12.07l11.03 14.21 6.58.45-1.48-1.56V115.6l1.48-1.48-7.03-.52 1.63 1.71v12.21l-11.02-14.36-6.67-.22 1.56 1.7v15.76zm-49.73 1.33 7-.52-1.55-1.48v-4.14l11.18-.59a.82.82 0 0 1 1 .81v3.29l-1.55 1.63 7-.22-1.55-1.48v-3a3.26 3.26 0 0 0-2.29-3.18 3.94 3.94 0 0 0 2.29-3.4v-3.18a4.44 4.44 0 0 0-4.44-4.44h-.37l-16.8 1 1.55 1.48v15.79zm5.48-15.69 11.18-.59a.82.82 0 0 1 1 .81v3.92a1.12 1.12 0 0 1-1 1.11l-11.18.59z" style="fill:#fff"/><path d="M85.75 92.58c-2.89.3-5.77.52-8.66.81l-8.34 10.81c5.25-.74 11-1.33 17-1.78zm-19.66 64.54c1.66 12.73 19.66 25.38 19.66 25.38v-35c-7.18.59-13.69 1.41-19.69 2.29v7.33zm23.09 43.89a115 115 0 0 0 13.25 8.07l7.92-6.59a130 130 0 0 1-21.24-11.32zM174.96 93.4c-2.89-.3-5.77-.52-8.66-.81v9.84c6.14.52 11.77 1.11 17 1.78zm-8.74 89.1s18-12.58 19.69-25.39v-7.4c-6-.89-12.51-1.63-19.69-2.29zm-16.65 26.57a115 115 0 0 0 13.25-8.07v-9.84a124 124 0 0 1-21.24 11.32zm-28.49-89.32a1 1 0 0 1 1-1h7.67v-1h-8.66a.92.92 0 0 0-1 .87v8.23h1v-7.1h-.07zm15.02-2.3V127a6 6 0 0 1-6 6h-11.24a4.65 4.65 0 0 0 3 1h9.25a6 6 0 0 0 6-6v-8.34a4.6 4.6 0 0 0-1-2.89 2 2 0 0 1 .07.67m57.95 7.49a.82.82 0 0 1 .81-.81h.22l7.7 1.33v-1l-8.66-1.48a.84.84 0 0 0-1 .67v8.21l1 .15zm15.02-.37a2.5 2.5 0 0 1 .07.74v9.47a5 5 0 0 1-4.81 5.11 3.3 3.3 0 0 1-1.18-.15l-10.48-1.78-.74-.22a5.76 5.76 0 0 0 3 1.55l9.33 1.63a4.85 4.85 0 0 0 5.83-3.63v-.07a6.5 6.5 0 0 0 .15-1.18v-8.29a4.9 4.9 0 0 0-1.11-3.18m-138.98-2.45v8.07l1-.07v-7a1.12 1.12 0 0 1 1-1.11l7.62-.81v-1l-8.66 1a1.26 1.26 0 0 0-1 1m16.1-3.11v9.47a6.85 6.85 0 0 1-6 6.66l-10.54 1.26h-.7a4 4 0 0 0 3 .67l9.25-1a6.85 6.85 0 0 0 6-6.66v-8.21a4.6 4.6 0 0 0-1-2.89v.74m-42.27 8.91 1.56-1.84 2.96-.52v-1.04l-4.52.81zm10.96-4.51v11.77l1.03.89v-11.85l4.67-.81-1.04-.81zm8.06.15.97.81v-5.25l-.97.22zm-11.54 15.54-1.04 1.19 7.11-1.19-1.04-.81zm116.93-18.43 2.96.37v-1.03l-4.51-.52v2.59zm14.14.52-4.74-.52v11.84l1.04 1.11v-11.76l4.74.44zm3.33 1.85.96 1.18v-5.25l-.96-.15zm-12.51 13.32 7.03.74-1.03-1.11-5.03-.52zm-17.24-2.51.81 1.11 6.59.44-.96-1.11zm4.88-2.96.96 1.03v-13.99l1.56-1.48-2.52-.22zm-14.58 2.44-4.96-.08-1.03.97 7.03.22zm-.52-10.14-1.03-1.33v8.14l1.03 1.03zm-33.67 7.62v-1.26a3.5 3.5 0 0 0-1-2.44v2.81zm-16.13-1.63 8.66-.44v-1.04l-9.63.52v2.37l.97.96zm.59 4.67-5.03.44-1.04 1.04 7.11-.52zm13.17-9.77c.15.22.37.44.52.67a3.86 3.86 0 0 0 1.85-3.26v-1.7a4.6 4.6 0 0 0-1-2.89 2 2 0 0 1 .07.67v3a5.84 5.84 0 0 1-1.41 3.48m-13.79-4.41 8.66-.52v-.96l-9.63.51v3.26h.97zm11.62 13.61-.96 1.04 7.03-.3-1.04-.96z" style="fill:#a4a9ad"/><path d="M231.06 136.32v-6.36s-3.77-.81-10.07-2l-1.11 4 5.87 25.9-21.17 8.44c15.84 2.22 26.5 4.14 26.5 4.14v-7.1l15.25-10.81zm-199.01-4.29-1.11-4c-6.36 1.18-10.07 2-10.07 2v6.36L5.62 152.53l15.25 10.81v7.1s10.66-2 26.5-4.14l-21.17-8.44zm29.6-62.83a498 498 0 0 1 59.36-4.59l-10.44-7.62a503 503 0 0 0-56.76 5.4v44c2.44-.44 5-.89 7.84-1.26v-36zm136.55 37.22v-44a503 503 0 0 0-56.76-5.4L131 64.64a483 483 0 0 1 59.36 4.59v36c2.81.37 5.4.81 7.84 1.26m-7.85 60.03c0 34-53 53.06-64.39 56.76-11.4-3.7-64.31-22.79-64.31-56.76v-16.14c-2.81.37-5.4.81-7.84 1.33v14.8c0 44.33 72.16 65.05 72.16 65.05s72.16-20.72 72.16-65.05v-14.85c-2.44-.44-5.11-.89-7.84-1.33z" style="fill:#ac162c"/><path d="m125.96 63.57 14.06-10.29a493 493 0 0 1 58.1 5.48v-7.25s-15.62-2.66-37.89-4.37l4.52-14.43-12.58-9-1.78-5.33-9.92 7.18 3.77-11.69h-5.62l-12.66-9.21-12.66 9.18h-5.62l3.77 11.69-10-7.18-1.76 5.31-12.58 9.2 4.51 14.43c-22.2 1.7-37.82 4.37-37.82 4.37v7.25a478 478 0 0 1 58.1-5.48zm21.69-34.41 8.88 6.36-3.63 11.14-10.66-.52-3.49-10.62zm-21.69-15.69 8.79 6.36-3.4 10.36h-11l-3.4-10.36zm-5.48 24.5h11l3.4 10.36-8.88 6.44-8.88-6.44zM99.1 46.66l-3.63-11.1 8.88-6.36 8.88 6.29-3.48 10.62zm93.77 86.33 10.21 1.78a.84.84 0 0 0 1-.67v-9.77a1.27 1.27 0 0 0-1-1.18l-10.21-1.7a.74.74 0 0 0-.94.45v.06a.4.4 0 0 0 0 .3v9.62a1.18 1.18 0 0 0 1 1.11m.22-9.25a.82.82 0 0 1 .81-.81h.15l8.66 1.48v1l-7.62-1.26a.82.82 0 0 0-1 .59v7.25l-1-.15v-8.07z" style="fill:#ac162c"/><path d="M31.31 152.53s36.34-10.58 94.66-10.58 94.73 10.58 94.73 10.58l-4.66-20.65 4.66-16.87s-36.34-10.58-94.73-10.58-94.66 10.66-94.66 10.66l4.59 16.87zm12.73-24.5v-2.66l4.51-.71v1l-3 .52zm6.44 12.36 1-1.18 5-.81 1 .81zm5.55-16.06v11.84l-1-.81v-11.84l4.72-.86 1 .81zm34.64 11.1 1-1 5-.44 1 1zm5.48-3.77-1-1v-2.4l9.62-.52v1l-8.59.52v2.4zm44.33 2.66 1-1 5 .15 1 1.11zm5.48-3.18-1-1V122l1 1.33v7.84zm11 3.85-.81-1 6.44.44 1 1.11zm9.92-12.8v-2.59l4.51.52v1l-3-.37zm6.51 14.28 1-.89 5 .52 1 1.11zm5.48-14.51v11.77l-1-1.18v-11.89l4.66.52 1 1.11zm31.31 5.77v8.29a4.93 4.93 0 0 1-4.74 5 3.7 3.7 0 0 1-1.26-.15l-9.25-1.55a5.76 5.76 0 0 1-3-1.55l.74.22 10.51 1.78a5 5 0 0 0 5.92-3.77 6.5 6.5 0 0 0 .15-1.18v-9.47a2.5 2.5 0 0 0-.07-.74 4.44 4.44 0 0 1 1 3.11m-22.2-6.06a3.87 3.87 0 0 1 3.7-4 5 5 0 0 1 1 .07l10.51 1.78a6 6 0 0 1 4.81 5.55v9.47a4 4 0 0 1-3.85 4.07 4.2 4.2 0 0 1-1-.07l-10.4-1.76a5.85 5.85 0 0 1-4.74-5.62v-9.49zm-2.07-2.74 1 .15v5.25l-1-1.18zm-21.24-4.51 20 2.15v5.33l-1.55-1.78-6.44-.67v13.54l1.55 1.7-7-.74 1.55-1.41v-13.6l-6.51-.67-1.6 1.4zm-2.59 3.63v14.06l-1-1.11v-14.65l2.59.15zm-23.83-5 6.66.22 11 14.36V115.3l-1.53-1.64 7 .52-1.52 1.48v15.84l1.55 1.55-6.59-.44-11.07-14.2v12.06l1.63 1.63-7.1-.22 1.55-1.55v-15.77zm-1 6.73v8.29a6 6 0 0 1-6 6h-9.37a4.65 4.65 0 0 1-3-1h11.25a6 6 0 0 0 6-6v-9.55c0-.22-.07-.44-.07-.67a5.18 5.18 0 0 1 1.11 3m-22.35-2.29a4.74 4.74 0 0 1 4.74-4.74h10.58a4.77 4.77 0 0 1 4.74 4.74v9.55a4.77 4.77 0 0 1-4.74 4.74h-10.47a4.83 4.83 0 0 1-4.81-4.74v-9.55zm-1 16.65-7 .22 1-1 5-.15zm-2.59-7a3.5 3.5 0 0 1 1 2.44v1.26l-1-1v-2.74zm1-7.25v1.7a4 4 0 0 1-1.85 3.26c-.15-.22-.37-.44-.52-.67a5.3 5.3 0 0 0 1.33-3.4v-3.18a2 2 0 0 0-.07-.67 4.15 4.15 0 0 1 1.11 2.89m-23.83-5.62 16.8-1a4.44 4.44 0 0 1 4.74 4.12v3.42a3.94 3.94 0 0 1-2.29 3.4 3.43 3.43 0 0 1 2.29 3.18v3l1.55 1.48-7 .22 1.55-1.63v-3.11a.86.86 0 0 0-.9-.82h-.07l-11.18.59v4.22l1.55 1.48-7 .52 1.55-1.63v-15.88zm-1.11 7v8.21a6.91 6.91 0 0 1-6 6.66l-9.25 1a4.44 4.44 0 0 1-3-.67h.71l10.51-1.26a6.85 6.85 0 0 0 6-6.66v-10.13a4.6 4.6 0 0 1 1 2.89m-22.28.22a5.41 5.41 0 0 1 4.74-5.25l10.51-1.18a4.11 4.11 0 0 1 4.65 3.49v.08c0 .22.07.44.07.59v9.41a5.47 5.47 0 0 1-4.74 5.25l-10.46 1.3a4.24 4.24 0 0 1-4.74-3.63c0-.22-.07-.44-.07-.67zm-2.07-2.07 1-.22v5.25l-1-.81zm-21.16 1.48 20-3.55v5.28l-1.48-1.26-6.52 1.16v13.54l1.63 1.26-7.13 1.3 1.55-1.85V123.3l-6.51 1.18-1.54 1.78z" style="fill:#ac162c"/><path d="M106.05 121.74v-3.77a.92.92 0 0 0-.87-1h-.09l-11.18.59v5.85l11.18-.59a1.18 1.18 0 0 0 1-1.11m-1.34-2.48-8.59.52v2.29l-1 .07v-3.33l9.62-.52v1zm-34.74 12.28 10.21-1.18a1.12 1.12 0 0 0 1-1.11v-9.56a.89.89 0 0 0-.81-.89h-.15l-10.21 1.11a1.12 1.12 0 0 0-1 1.11v9.55a1 1 0 0 0 .81 1h.15m.22-9.4a1.12 1.12 0 0 1 1-1.11l8.66-1v1l-7.62.89a1.12 1.12 0 0 0-1 1.11v7l-1 .07v-8.07h.07zm49.59 5.89h10.14a1 1 0 0 0 1-1v-9.62a1.05 1.05 0 0 0-1-1h-10.14a1 1 0 0 0-1 1v9.62a.9.9 0 0 0 .82 1h.14m.22-9.33a1 1 0 0 1 1-1h8.75v1h-7.62a1 1 0 0 0-1 1v7.1h-1zm-13.8 39.98 1.04.66v-3.18h-14.8l.96.89v9.03l-.96.88h5.03l-1.04-.88v-3.33h8.29v-2.37h-8.29v-1.7zm43.08-.02h9l1.11.67v-3.17h-10.11c-2.29 0-4.29 1.55-4.29 3.4v4c0 1.85 1.92 3.4 4.29 3.4h10.07v-2.52h-10.07a1.1 1.1 0 0 1-1.18-.89v-4a1 1 0 0 1 1.18-.89" style="fill:#ac162c"/><path d="M201.97 152.31v11l17.84-7.1c-4-1-10-2.44-17.84-3.92M50.03 163.34v-11c-7.84 1.48-13.84 2.89-17.84 3.92zm16.13 5.62c1 11.77 9.33 21.68 19.54 29.53v-9.7c-10.81-7.84-16.65-15.32-19.54-19.83m100.06 19.84v9.7c10.29-7.84 18.58-17.76 19.61-29.53-2.89 4.51-8.73 12-19.61 19.83M66.09 72.82v27.38l7-9.92c10.66-1.26 25-2.52 40.85-3v13.62c3.85-.07 7.92-.15 12.06-.15s8.14.07 12.06.15V87.26c15.84.52 30.2 1.78 40.93 3l7 9.92V72.82a492 492 0 0 0-59.95-4.07 477 477 0 0 0-59.95 4.07m71.94 73.05c-3.92-.07-7.92-.15-12.06-.15s-8.14 0-12.06.15v58.32l-8.07 6.66a165 165 0 0 0 20.13 8.44 165 165 0 0 0 20.13-8.44l-8.07-6.66z" style="fill:#333e48"/><path d="M156.6 227.06h1.48v4.51h.52v-4.51h1.56v-.59h-3.56zm6.52 3.63-1.34-4.22h-.81v5.1h.52v-4.29l1.33 4.29h.52l1.4-4.29v4.29h.52v-5.1h-.89z" style="fill:#3e4643"/></svg>